<svg width="152" height="152" viewBox="0 0 152 152" fill="none" xmlns="http://www.w3.org/2000/svg">
<g filter="url(#filter0_ddd_7_17991)">
<path d="M30.4 38C30.4 33.8026 33.8026 30.4 38 30.4H60.8V60.8H30.4V38Z" fill="#46A758"/>
<path d="M60.8 30.4H91.2V60.8H60.8V30.4Z" fill="#46A758"/>
<path d="M91.2 30.4L121.6 60.8H91.2V30.4Z" fill="#46A758"/>
<path d="M91.2 30.4L121.6 60.8H98.8C94.6026 60.8 91.2 57.3974 91.2 53.2V30.4Z" fill="url(#paint0_linear_7_17991)"/>
<path d="M60.8 121.6L30.4 91.2H60.8V121.6Z" fill="#46A758"/>
<path d="M60.8 121.6L30.4 91.2H53.2C57.3973 91.2 60.8 94.6026 60.8 98.8V121.6Z" fill="url(#paint1_linear_7_17991)"/>
<path d="M91.2 60.8H121.6V91.2H91.2V60.8Z" fill="#46A758"/>
<path d="M91.2 91.2H121.6V114C121.6 118.197 118.197 121.6 114 121.6H91.2V91.2Z" fill="#46A758"/>
<path d="M60.8 91.2H91.2V121.6H60.8V91.2Z" fill="#46A758"/>
<path d="M30.4 60.8H60.8V91.2H30.4V60.8Z" fill="#46A758"/>
</g>
<defs>
<filter id="filter0_ddd_7_17991" x="22.8" y="26.6" width="106.4" height="106.4" filterUnits="userSpaceOnUse" color-interpolation-filters="sRGB">
<feFlood flood-opacity="0" result="BackgroundImageFix"/>
<feColorMatrix in="SourceAlpha" type="matrix" values="0 0 0 0 0 0 0 0 0 0 0 0 0 0 0 0 0 0 127 0" result="hardAlpha"/>
<feOffset dy="0.95"/>
<feGaussianBlur stdDeviation="0.95"/>
<feComposite in2="hardAlpha" operator="out"/>
<feColorMatrix type="matrix" values="0 0 0 0 0 0 0 0 0 0 0 0 0 0 0 0 0 0 0.12 0"/>
<feBlend mode="normal" in2="BackgroundImageFix" result="effect1_dropShadow_7_17991"/>
<feColorMatrix in="SourceAlpha" type="matrix" values="0 0 0 0 0 0 0 0 0 0 0 0 0 0 0 0 0 0 127 0" result="hardAlpha"/>
<feOffset/>
<feGaussianBlur stdDeviation="1.9"/>
<feComposite in2="hardAlpha" operator="out"/>
<feColorMatrix type="matrix" values="0 0 0 0 0 0 0 0 0 0 0 0 0 0 0 0 0 0 0.04 0"/>
<feBlend mode="normal" in2="effect1_dropShadow_7_17991" result="effect2_dropShadow_7_17991"/>
<feColorMatrix in="SourceAlpha" type="matrix" values="0 0 0 0 0 0 0 0 0 0 0 0 0 0 0 0 0 0 127 0" result="hardAlpha"/>
<feOffset dy="3.8"/>
<feGaussianBlur stdDeviation="3.8"/>
<feComposite in2="hardAlpha" operator="out"/>
<feColorMatrix type="matrix" values="0 0 0 0 0 0 0 0 0 0 0 0 0 0 0 0 0 0 0.08 0"/>
<feBlend mode="normal" in2="effect2_dropShadow_7_17991" result="effect3_dropShadow_7_17991"/>
<feBlend mode="normal" in="SourceGraphic" in2="effect3_dropShadow_7_17991" result="shape"/>
</filter>
<linearGradient id="paint0_linear_7_17991" x1="76" y1="76" x2="121.6" y2="30.4" gradientUnits="userSpaceOnUse">
<stop stop-color="#97CF9C"/>
<stop offset="1" stop-color="#CEEBCF"/>
</linearGradient>
<linearGradient id="paint1_linear_7_17991" x1="76" y1="76" x2="121.6" y2="30.4" gradientUnits="userSpaceOnUse">
<stop stop-color="#97CF9C"/>
<stop offset="1" stop-color="#CEEBCF"/>
</linearGradient>
</defs>
</svg>
