<svg width="192" height="192" viewBox="0 0 192 192" fill="none" xmlns="http://www.w3.org/2000/svg">
<g clip-path="url(#clip0_7_18009)">
<g filter="url(#filter0_ddd_7_18009)">
<path d="M0 16C0 7.16344 7.16344 0 16 0H64V64H0V16Z" fill="#46A758"/>
<path d="M64 0H128V64H64V0Z" fill="#46A758"/>
<path d="M128 0L192 64H128V0Z" fill="#46A758"/>
<path d="M128 0L192 64H144C135.163 64 128 56.8366 128 48V0Z" fill="url(#paint0_linear_7_18009)"/>
<path d="M64 192L0 128H64V192Z" fill="#46A758"/>
<path d="M64 192L0 128H48C56.8366 128 64 135.163 64 144V192Z" fill="url(#paint1_linear_7_18009)"/>
<path d="M128 64H192V128H128V64Z" fill="#46A758"/>
<path d="M128 128H192V176C192 184.837 184.837 192 176 192H128V128Z" fill="#46A758"/>
<path d="M64 128H128V192H64V128Z" fill="#46A758"/>
<path d="M0 64H64V128H0V64Z" fill="#46A758"/>
</g>
</g>
<defs>
<filter id="filter0_ddd_7_18009" x="-9.6" y="-4.8" width="211.2" height="211.2" filterUnits="userSpaceOnUse" color-interpolation-filters="sRGB">
<feFlood flood-opacity="0" result="BackgroundImageFix"/>
<feColorMatrix in="SourceAlpha" type="matrix" values="0 0 0 0 0 0 0 0 0 0 0 0 0 0 0 0 0 0 127 0" result="hardAlpha"/>
<feOffset dy="1.2"/>
<feGaussianBlur stdDeviation="1.2"/>
<feComposite in2="hardAlpha" operator="out"/>
<feColorMatrix type="matrix" values="0 0 0 0 0 0 0 0 0 0 0 0 0 0 0 0 0 0 0.12 0"/>
<feBlend mode="normal" in2="BackgroundImageFix" result="effect1_dropShadow_7_18009"/>
<feColorMatrix in="SourceAlpha" type="matrix" values="0 0 0 0 0 0 0 0 0 0 0 0 0 0 0 0 0 0 127 0" result="hardAlpha"/>
<feOffset/>
<feGaussianBlur stdDeviation="2.4"/>
<feComposite in2="hardAlpha" operator="out"/>
<feColorMatrix type="matrix" values="0 0 0 0 0 0 0 0 0 0 0 0 0 0 0 0 0 0 0.04 0"/>
<feBlend mode="normal" in2="effect1_dropShadow_7_18009" result="effect2_dropShadow_7_18009"/>
<feColorMatrix in="SourceAlpha" type="matrix" values="0 0 0 0 0 0 0 0 0 0 0 0 0 0 0 0 0 0 127 0" result="hardAlpha"/>
<feOffset dy="4.8"/>
<feGaussianBlur stdDeviation="4.8"/>
<feComposite in2="hardAlpha" operator="out"/>
<feColorMatrix type="matrix" values="0 0 0 0 0 0 0 0 0 0 0 0 0 0 0 0 0 0 0.08 0"/>
<feBlend mode="normal" in2="effect2_dropShadow_7_18009" result="effect3_dropShadow_7_18009"/>
<feBlend mode="normal" in="SourceGraphic" in2="effect3_dropShadow_7_18009" result="shape"/>
</filter>
<linearGradient id="paint0_linear_7_18009" x1="96" y1="96" x2="192" y2="0" gradientUnits="userSpaceOnUse">
<stop stop-color="#97CF9C"/>
<stop offset="1" stop-color="#CEEBCF"/>
</linearGradient>
<linearGradient id="paint1_linear_7_18009" x1="96" y1="96" x2="192" y2="0" gradientUnits="userSpaceOnUse">
<stop stop-color="#97CF9C"/>
<stop offset="1" stop-color="#CEEBCF"/>
</linearGradient>
<clipPath id="clip0_7_18009">
<rect width="192" height="192" fill="white"/>
</clipPath>
</defs>
</svg>
