<?xml version="1.0" standalone="no"?>
<!DOCTYPE svg PUBLIC "-//W3C//DTD SVG 20010904//EN"
 "http://www.w3.org/TR/2001/REC-SVG-20010904/DTD/svg10.dtd">
<svg version="1.0" xmlns="http://www.w3.org/2000/svg"
 width="700.000000pt" height="700.000000pt" viewBox="0 0 700.000000 700.000000"
 preserveAspectRatio="xMidYMid meet">
<metadata>
Created by potrace 1.14, written by Peter Selinger 2001-2017
</metadata>
<g transform="translate(0.000000,700.000000) scale(0.100000,-0.100000)"
fill="#000000" stroke="none">
<path d="M490 6993 c-110 -18 -238 -84 -319 -164 -72 -72 -137 -192 -160 -299
-7 -29 -10 -770 -8 -2125 l2 -2080 1105 -1104 c608 -608 1104 -1108 1102
-1113 -1 -4 2 -8 7 -8 5 0 33 -23 61 -50 l52 -50 2101 2 2102 3 61 22 c33 12
73 29 89 37 16 8 33 12 39 9 6 -3 8 -3 4 2 -7 7 13 27 36 36 6 2 38 34 72 70
35 37 66 64 70 60 4 -3 4 0 0 7 -5 7 -2 21 7 30 7 9 25 43 37 74 13 32 26 58
29 58 3 0 8 10 10 23 2 12 5 971 7 2130 3 1605 1 2107 -7 2101 -8 -4 -9 -3 -5
4 4 7 -458 476 -1154 1172 l-1160 1160 -2078 -1 c-1142 -1 -2088 -4 -2102 -6z
m1869 -2335 c8 -8 11 -8 8 -2 -8 14 150 14 172 0 9 -6 12 -5 8 1 -5 7 40 11
138 11 103 0 145 -3 145 -11 0 -9 2 -9 8 -1 12 18 104 14 119 -5 11 -14 12
-14 8 0 -5 12 2 16 30 17 21 1 35 -3 35 -11 0 -8 3 -9 8 -1 9 13 281 13 301 0
9 -6 12 -5 7 2 -11 18 77 12 91 -7 12 -14 12 -14 8 0 -5 12 2 16 30 17 19 1
35 -3 35 -8 0 -6 5 -10 11 -10 5 0 8 4 5 9 -3 4 55 8 129 9 97 0 135 -3 135
-11 0 -8 3 -9 8 -1 12 18 104 14 119 -5 11 -14 12 -14 8 0 -5 12 2 16 30 17
21 1 35 -3 35 -11 0 -8 3 -8 8 -2 10 15 185 16 194 1 6 -8 8 -8 8 0 0 15 100
15 119 0 11 -8 13 -8 8 0 -5 8 16 11 71 10 51 -1 77 -5 77 -13 0 -6 3 -15 7
-19 4 -3 6 3 3 14 -3 20 1 21 68 20 40 -1 78 -6 86 -12 11 -8 13 -8 7 2 -4 7
-2 12 6 12 9 0 14 -13 15 -35 0 -22 -3 -32 -10 -28 -6 4 -7 1 -1 -8 14 -21 14
-241 0 -258 -8 -12 -8 -13 2 -7 7 4 12 2 12 -6 0 -8 -6 -20 -12 -27 -10 -11
-10 -13 0 -7 8 5 12 -1 12 -18 0 -14 -6 -26 -12 -26 -9 0 -9 -3 -3 -8 15 -10
16 -292 1 -292 -6 0 -4 -5 4 -10 13 -8 13 -13 2 -31 -8 -11 -9 -18 -3 -14 15
9 14 -18 -1 -34 -9 -10 -9 -12 -1 -7 15 8 15 -56 -1 -66 -8 -5 -7 -8 2 -8 6 0
12 -7 12 -15 0 -8 -6 -15 -12 -15 -9 0 -8 -4 2 -10 13 -8 13 -13 2 -31 -8 -11
-9 -18 -3 -14 15 9 14 -18 -1 -34 -10 -11 -10 -13 0 -7 8 5 12 -1 12 -18 0
-14 -6 -26 -12 -26 -9 0 -9 -3 -3 -8 15 -10 16 -292 1 -292 -6 0 -4 -5 4 -10
13 -8 13 -13 2 -31 -8 -11 -9 -18 -3 -14 15 9 14 -18 -1 -34 -9 -10 -9 -12 -1
-7 15 8 15 -56 -1 -66 -8 -5 -7 -8 2 -8 6 0 12 -7 12 -15 0 -8 -6 -15 -12 -15
-9 0 -8 -4 2 -10 13 -8 13 -13 2 -31 -8 -11 -9 -18 -3 -14 15 9 14 -18 -1 -34
-7 -8 -8 -11 -2 -8 7 4 10 -47 10 -169 0 -117 -3 -174 -10 -174 -6 0 -4 -5 4
-10 13 -8 13 -13 2 -31 -8 -11 -9 -18 -3 -14 15 9 14 -18 -1 -34 -7 -8 -8 -11
-2 -8 8 5 11 -30 10 -116 l-1 -122 -1166 -1 -1166 0 0 118 c1 76 5 118 11 118
8 0 8 3 0 8 -15 10 -15 854 0 864 7 5 7 8 1 8 -15 0 -17 80 -2 80 8 0 9 3 1 8
-15 10 -15 914 0 924 8 6 8 8 0 8 -6 0 -11 23 -12 55 0 37 3 53 10 49 7 -5 8
-2 2 7 -10 16 -14 89 -4 89 3 0 12 -6 19 -12z"/>
<path d="M2356 2398 c3 -5 10 -6 15 -3 13 9 11 12 -6 12 -8 0 -12 -4 -9 -9z"/>
</g>
</svg>
